<svg xmlns="http://www.w3.org/2000/svg">
	<symbol id="folder-open" viewBox="0 0 64 64">
		<polyline points="8,20 32,44 56,20" fill="none" stroke="currentColor" stroke-width="6" />
	</symbol>
	<symbol id="folder-close" viewBox="0 0 64 64">
		<polyline points="20,8 44,32 20,56" fill="none" stroke="currentColor" stroke-width="6" />
	</symbol>
	<symbol id="cross" viewBox="0 0 64 64">
		<line x1="4" x2="60" y1="4" y2="60" stroke="currentColor" stroke-width="10" />
		<line x1="60" x2="4" y1="4" y2="60" stroke="currentColor" stroke-width="10" />
	</symbol>
	<symbol id="check" viewBox="0 0 64 64">
		<polyline points="8,32 24,48 56,16" fill="none" stroke="currentColor" stroke-width="7" />
	</symbol>
	<symbol id="plus" viewBox="0 0 64 64">
		<line x1="8" x2="56" y1="32" y2="32" stroke="currentColor" stroke-width="6" />
		<line x1="32" x2="32" y1="8" y2="56" stroke="currentColor" stroke-width="6" />
	</symbol>
	<symbol id="save" viewBox="0 0 64 64">
		<polyline points="12,12 44,12 52,20 52,52 44,52 44,36 20,36 20,52 52,52 12,52 12,12 22,12 22,24 38,24 38,12" fill="none" stroke="currentColor" stroke-width="4" />
	</symbol>
	<symbol id="new-file" viewBox="0 0 64 64">
		<polyline points="52,36 52,20 40,8 40,20 52,20 40,20 40,8 12,8 12,56 36,56" fill="none" stroke="currentColor" stroke-width="4" stroke-linejoin="round" stroke-linecap="round" />
		<polyline points="40,50 56,50 48,50 48,42 48,58" fill="none" stroke="currentColor" stroke-width="4" stroke-linejoin="round" stroke-linecap="round" />
	</symbol>
	<symbol id="load-project" viewBox="0 0 64 64">
		<polyline points="48,24 48,16 28,16 24,12 8,12 8,52 8,12 10,12 8,12 8,52 16,24 56,24 48,52 8,52 8,50" fill="none" stroke="currentColor" stroke-width="4" />
	</symbol>
	<symbol id="new-project" viewBox="0 0 64 64">
		<polyline points="52,32 52,16 28,16 24,12 8,12 8,24 52,24 8,24 8,52 8,12 10,12 8,12 8,52 32,52" fill="none" stroke="currentColor" stroke-width="4" />
		<polyline points="40,52 60,52 50,52 50,42 50,62" fill="none" stroke="currentColor" stroke-width="4" />
	</symbol>
</svg>